<?xml version="1.0" standalone="no"?>
<!DOCTYPE svg PUBLIC "-//W3C//DTD SVG 20010904//EN"
 "http://www.w3.org/TR/2001/REC-SVG-20010904/DTD/svg10.dtd">
<svg version="1.0" xmlns="http://www.w3.org/2000/svg"
 width="200.000000pt" height="200.000000pt" viewBox="0 0 200.000000 200.000000"
 preserveAspectRatio="xMidYMid meet">

<g transform="translate(0.000000,200.000000) scale(0.100000,-0.100000)"
fill="#000000" stroke="none">
<path d="M163 1237 c-12 -6 -24 -20 -27 -32 -3 -11 -6 -109 -6 -217 l0 -198
40 0 40 0 0 182 c0 120 3 179 10 172 9 -9 77 -189 86 -229 3 -11 -6 4 -20 33
-14 28 -27 52 -29 52 -8 0 23 -133 45 -193 21 -57 36 -62 39 -12 0 11 3 14 6
8 3 -8 23 -13 48 -13 34 0 47 -5 59 -22 12 -16 16 -18 20 -7 2 8 13 41 25 75
20 59 40 164 28 154 -3 -3 -22 -47 -42 -98 -42 -105 -57 -120 -21 -21 70 190
99 265 107 273 5 6 8 -49 7 -130 -1 -76 -3 -113 -5 -81 -2 31 -8 57 -12 57
-13 0 -31 -98 -31 -172 0 -70 0 -71 20 -53 11 10 21 28 21 39 1 18 2 19 6 3 4
-15 13 -18 47 -15 36 2 46 -1 61 -21 l19 -25 -24 17 c-23 16 -60 8 -60 -13 0
-13 77 -13 85 0 4 6 10 8 14 5 15 -9 51 41 76 106 14 35 30 73 34 84 62 145
70 170 50 163 -6 -2 -10 -7 -9 -12 1 -5 -2 -12 -7 -15 -11 -7 -55 -98 -102
-211 -50 -119 -51 -119 -51 35 0 134 -9 188 -24 150 -3 -9 -6 -33 -6 -52 0
-20 -3 -34 -6 -31 -3 3 -7 58 -8 122 -3 89 -1 118 10 127 8 6 14 15 14 20 0
11 -127 12 -132 2 -1 -5 -16 -15 -32 -24 -22 -12 -34 -33 -54 -92 -29 -85 -38
-95 -22 -22 6 26 9 50 7 52 -11 11 -49 -88 -53 -137 -4 -44 -2 -50 6 -31 16
36 21 20 6 -22 -17 -50 -22 -53 -34 -17 -7 18 -7 28 -2 25 14 -8 13 74 -1 114
-6 17 -15 31 -21 31 -5 0 -6 6 -2 13 5 9 4 9 -6 0 -10 -9 -10 -21 -2 -55 18
-70 7 -54 -26 38 -23 63 -29 91 -22 105 6 10 10 20 10 23 0 10 -124 4 -147 -7z
m517 -303 c0 -8 -4 -14 -10 -14 -5 0 -10 9 -10 21 0 11 5 17 10 14 6 -3 10
-13 10 -21z m-350 -79 c0 -5 -5 -3 -10 5 -5 8 -10 20 -10 25 0 6 5 3 10 -5 5
-8 10 -19 10 -25z m337 3 c-3 -8 -6 -5 -6 6 -1 11 2 17 5 13 3 -3 4 -12 1 -19z"/>
<path d="M987 1243 c-10 -3 -16 -10 -14 -17 3 -7 -3 -17 -12 -23 -10 -6 -40
-64 -66 -130 -27 -65 -63 -153 -82 -196 -18 -43 -33 -80 -33 -82 0 -3 22 -5
48 -5 47 0 50 1 67 40 l18 40 81 -1 81 -1 -49 -12 c-70 -17 -72 -36 -3 -36 37
0 59 5 68 16 10 13 10 17 -2 25 -10 7 -6 9 16 7 24 -1 30 -7 32 -26 2 -35 14
-43 73 -48 45 -4 52 -2 46 11 -3 9 -6 19 -6 21 0 3 -4 2 -10 -1 -5 -3 -7 0 -5
8 3 7 -28 94 -70 192 -64 150 -75 183 -66 202 10 22 9 23 -42 22 -28 -1 -60
-3 -70 -6z m62 -170 c34 -97 35 -103 7 -53 l-25 45 -1 -39 c0 -27 7 -47 22
-63 26 -27 39 -30 33 -5 -3 9 1 4 9 -13 l14 -30 -85 -3 c-47 -2 -87 -1 -89 1
-2 1 -1 13 3 26 4 17 8 19 15 9 14 -22 58 36 58 78 0 19 -2 34 -5 34 -2 0 -16
-21 -30 -47 -26 -48 -26 -45 2 37 26 77 32 90 40 90 5 0 19 -30 32 -67z"/>
<path d="M1020 940 c-10 -6 -7 -10 13 -16 34 -8 46 1 20 14 -11 6 -25 7 -33 2z"/>
<path d="M1371 1241 c-11 -7 -10 -12 3 -27 38 -42 166 -207 166 -214 0 -4 -34
-50 -75 -101 -41 -52 -75 -97 -75 -101 0 -5 24 -8 54 -8 l55 0 55 65 55 65 22
-31 c16 -24 19 -33 9 -39 -16 -10 -6 -37 26 -74 21 -23 28 -26 35 -15 5 8 9
17 9 21 0 4 29 8 65 10 l65 3 -73 89 c-100 122 -94 112 -72 140 11 14 47 61
80 104 38 51 75 87 100 100 l40 21 -72 -1 c-76 -1 -100 -9 -89 -27 5 -7 -2
-11 -18 -11 -19 0 -36 -15 -71 -60 -25 -33 -50 -60 -55 -60 -4 0 -22 18 -40
40 -17 21 -37 37 -44 34 -18 -7 -46 39 -39 65 5 19 2 21 -48 21 -30 0 -60 -4
-68 -9z"/>
<path d="M1648 1180 c-16 -15 -28 -36 -28 -46 0 -16 5 -13 25 11 53 63 55 87
3 35z"/>
<path d="M1560 1173 c0 -14 36 -63 42 -57 11 10 -9 59 -25 62 -9 2 -17 0 -17
-5z"/>
<path d="M1370 1154 c0 -18 108 -143 128 -147 28 -5 28 -2 -5 42 -57 78 -123
134 -123 105z"/>
<path d="M1774 1084 c-52 -60 -61 -74 -47 -74 9 0 28 22 96 107 38 48 -2 21
-49 -33z"/>
<path d="M97 1090 c-9 -24 -18 -330 -9 -330 26 0 32 30 31 160 -1 133 -10 201
-22 170z"/>
<path d="M1176 1062 c-11 -18 94 -281 121 -304 29 -24 9 50 -49 180 -60 132
-63 138 -72 124z"/>
<path d="M228 970 c-3 -14 -7 -61 -8 -106 -1 -69 2 -83 20 -99 l20 -18 -1 84
c0 46 -6 102 -13 124 -11 37 -13 38 -18 15z"/>
<path d="M1439 913 c-24 -25 -56 -58 -70 -72 -30 -29 -53 -70 -45 -78 8 -9 55
46 159 185 21 28 -3 9 -44 -35z"/>
<path d="M1784 894 c21 -54 117 -146 134 -129 6 6 -100 125 -122 137 -16 9
-18 8 -12 -8z"/>
<path d="M1581 842 c-8 -10 -23 -27 -34 -39 -10 -12 -17 -27 -15 -34 2 -7 19
6 37 30 31 39 42 77 12 43z"/>
<path d="M912 808 c-14 -14 -16 -48 -2 -48 10 0 26 48 18 55 -2 3 -10 -1 -16
-7z"/>
<path d="M1126 797 c3 -10 9 -15 12 -12 3 3 0 11 -7 18 -10 9 -11 8 -5 -6z"/>
<path d="M845 773 c-27 -7 -44 -23 -23 -23 8 0 30 -3 48 -6 31 -7 32 -6 21 15
-7 11 -15 20 -19 20 -4 -1 -16 -3 -27 -6z"/>
<path d="M1233 773 c-43 -8 -18 -33 33 -33 13 0 24 4 24 8 0 10 -22 33 -29 31
-4 -1 -16 -4 -28 -6z"/>
<path d="M1443 773 c-54 -10 -9 -32 50 -24 22 3 25 6 16 17 -11 14 -24 15 -66
7z"/>
<path d="M170 755 c0 -10 11 -15 35 -15 36 0 47 13 19 24 -28 11 -54 6 -54 -9z"/>
<path d="M397 764 c-15 -15 -6 -24 24 -24 20 0 29 4 27 13 -5 14 -40 21 -51
11z"/>
<path d="M1800 760 c-11 -7 3 -10 45 -10 42 0 56 3 45 10 -8 5 -28 10 -45 10
-16 0 -37 -5 -45 -10z"/>
</g>
</svg>
